<svg width="24" height="24" viewBox="0 0 24 24" fill="none" xmlns="http://www.w3.org/2000/svg">
<path d="M12 24C18.6274 24 24 18.6274 24 12C24 5.37258 18.6274 0 12 0C5.37258 0 0 5.37258 0 12C0 18.6274 5.37258 24 12 24Z" fill="#ECE5DD"/>
<path d="M12 0C11.4695 0 10.9471 0.034875 10.4348 0.101578C16.3226 0.868594 20.8696 5.90311 20.8696 12C20.8696 18.0969 16.3226 23.1314 10.4348 23.8984C10.9471 23.9651 11.4695 24 12 24C18.6274 24 24 18.6274 24 12C24 5.37262 18.6274 0 12 0Z" fill="#D9CBBD"/>
<path d="M17.072 8.42142C15.8908 6.73341 14.0296 5.76521 11.9655 5.76521C10.2638 5.76521 8.67286 6.44124 7.48561 7.66866L7.21233 7.95127L4.79926 5.88155L5.09771 5.56322C5.97029 4.6328 7.00097 3.90019 8.16108 3.38574C9.36291 2.85281 10.6429 2.58258 11.9655 2.58258C13.5201 2.58258 15.0564 2.96419 16.4084 3.68621C17.7575 4.40677 18.9263 5.46778 19.7884 6.75469L19.8995 6.92049C19.9727 7.02985 19.9389 7.17835 19.8255 7.24524L17.4758 8.6302C17.3729 8.69095 17.2405 8.66217 17.172 8.56421L17.072 8.42142Z" fill="#CD2900"/>
<path d="M3.74889 16.5971C2.96336 15.1984 2.5481 13.6087 2.5481 12C2.5481 9.86941 3.24503 7.85814 4.56363 6.18368L4.83288 5.84167L7.24633 7.91177L7.00713 8.22513C6.1721 9.31914 5.73067 10.6245 5.73067 12C5.73067 13.032 5.98933 14.0552 6.47875 14.9588L6.66649 15.3055L3.96203 16.9767L3.74889 16.5971Z" fill="#FFCE00"/>
<path d="M11.9654 21.4174C8.85172 21.4174 5.94139 19.8755 4.1802 17.2931L3.9342 16.9324L6.63913 15.2607L6.86549 15.582C8.03586 17.243 9.94241 18.2347 11.9654 18.2347C13.6458 18.2347 15.2818 17.5391 16.4539 16.3263L16.7272 16.0435L19.1379 18.1112L18.8401 18.4295C17.9674 19.3621 16.9359 20.0964 15.7745 20.6122C14.5713 21.1465 13.2898 21.4174 11.9654 21.4174Z" fill="#40A459"/>
<path d="M16.6934 16.0832L16.9319 15.7699C17.3154 15.266 17.6185 14.7087 17.833 14.1132L13.2118 14.1131C13.0853 14.1131 12.9828 14.0105 12.9828 13.8841V11.1595C12.9828 11.033 13.0853 10.9305 13.2118 10.9305H21.3556L21.3828 12.0052C21.3818 14.1302 20.687 16.137 19.3736 17.8086L19.1044 18.1512L16.6934 16.0832Z" fill="#1D81CE"/>
<path d="M21.748 11.99L21.7213 10.9465C21.7158 10.7344 21.5423 10.5652 21.3302 10.5652H13.009C12.7928 10.5652 12.6176 10.7403 12.6176 10.9565V14.087C12.6176 14.3031 12.7928 14.4783 13.009 14.4783L17.288 14.4784C16.3331 16.5279 14.2599 17.8696 11.9655 17.8696C8.72903 17.8696 6.09593 15.2365 6.09593 12C6.09593 8.76361 8.72903 6.1305 11.9655 6.1305C14.013 6.1305 15.88 7.17117 16.9595 8.91436C17.0715 9.0952 17.3074 9.15338 17.4909 9.04542L20.1885 7.45533C20.2788 7.40213 20.344 7.31494 20.3694 7.21322C20.3949 7.11155 20.3785 7.00397 20.3239 6.91448C19.466 5.50734 18.2574 4.33017 16.8287 3.51005C15.3554 2.66447 13.6737 2.21747 11.9654 2.21747C6.57128 2.21747 2.1828 6.60591 2.1828 12.0001C2.1828 17.3943 6.57124 21.7827 11.9654 21.7827C17.3596 21.7827 21.7481 17.3941 21.7481 12C21.7481 11.9967 21.748 11.9933 21.748 11.99ZM11.9655 3C14.9982 3 17.7641 4.48284 19.4416 6.98709L17.414 8.18217C16.1673 6.40027 14.1578 5.34783 11.9655 5.34783C10.0913 5.34783 8.39589 6.12722 7.18563 7.37855L5.40213 5.84883C7.04528 4.09664 9.37952 3 11.9655 3ZM4.89147 6.44189L6.6753 7.97189C5.82133 9.0907 5.31325 10.487 5.31325 12C5.31325 13.142 5.60261 14.2176 6.11168 15.1575L4.11283 16.3928C3.38266 15.0927 2.96547 13.5943 2.96547 12C2.96547 9.90413 3.68566 7.97325 4.89147 6.44189ZM11.9655 21C8.87669 21 6.14655 19.4357 4.52505 17.058L6.52432 15.8225C7.72933 17.5327 9.71903 18.6522 11.9655 18.6522C13.8082 18.6522 15.5249 17.8882 16.754 16.6164L18.5354 18.1443C16.8919 19.9005 14.5548 21 11.9655 21ZM19.0455 17.5507L17.2639 16.0227C17.6738 15.4842 18.0055 14.8779 18.239 14.2174C18.2814 14.0977 18.2629 13.9648 18.1896 13.8611C18.1162 13.7574 17.9971 13.6958 17.8701 13.6958L13.4003 13.6957V11.3478H20.9487L20.9655 12.005C20.9644 14.0956 20.2468 16.0217 19.0455 17.5507Z" fill="black"/>
<path d="M12 24C18.6274 24 24 18.6274 24 12C24 5.37258 18.6274 0 12 0C5.37258 0 0 5.37258 0 12C0 18.6274 5.37258 24 12 24Z" fill="#ECE5DD"/>
<path d="M12 0C11.4695 0 10.9471 0.034875 10.4348 0.101578C16.3226 0.868594 20.8696 5.90311 20.8696 12C20.8696 18.0969 16.3226 23.1314 10.4348 23.8984C10.9471 23.9651 11.4695 24 12 24C18.6274 24 24 18.6274 24 12C24 5.37262 18.6274 0 12 0Z" fill="#D9CBBD"/>
<path d="M17.072 8.42142C15.8908 6.73341 14.0296 5.76521 11.9655 5.76521C10.2638 5.76521 8.67286 6.44124 7.48561 7.66866L7.21233 7.95127L4.79926 5.88155L5.09771 5.56322C5.97029 4.6328 7.00097 3.90019 8.16108 3.38574C9.36291 2.85281 10.6429 2.58258 11.9655 2.58258C13.5201 2.58258 15.0564 2.96419 16.4084 3.68621C17.7575 4.40677 18.9263 5.46778 19.7884 6.75469L19.8995 6.92049C19.9727 7.02985 19.9389 7.17835 19.8255 7.24524L17.4758 8.6302C17.3729 8.69095 17.2405 8.66217 17.172 8.56421L17.072 8.42142Z" fill="#CD2900"/>
<path d="M3.74889 16.5971C2.96336 15.1984 2.5481 13.6087 2.5481 12C2.5481 9.86941 3.24503 7.85814 4.56363 6.18368L4.83288 5.84167L7.24633 7.91177L7.00713 8.22513C6.1721 9.31914 5.73067 10.6245 5.73067 12C5.73067 13.032 5.98933 14.0552 6.47875 14.9588L6.66649 15.3055L3.96203 16.9767L3.74889 16.5971Z" fill="#FFCE00"/>
<path d="M11.9654 21.4174C8.85172 21.4174 5.94139 19.8755 4.1802 17.2931L3.9342 16.9324L6.63913 15.2607L6.86549 15.582C8.03586 17.243 9.94241 18.2347 11.9654 18.2347C13.6458 18.2347 15.2818 17.5391 16.4539 16.3263L16.7272 16.0435L19.1379 18.1112L18.8401 18.4295C17.9674 19.3621 16.9359 20.0964 15.7745 20.6122C14.5713 21.1465 13.2898 21.4174 11.9654 21.4174Z" fill="#40A459"/>
<path d="M16.6934 16.0832L16.9319 15.7699C17.3154 15.266 17.6185 14.7087 17.833 14.1132L13.2118 14.1131C13.0853 14.1131 12.9828 14.0105 12.9828 13.8841V11.1595C12.9828 11.033 13.0853 10.9305 13.2118 10.9305H21.1591C21.2684 10.9305 21.3577 11.0176 21.3605 11.1269L21.3827 12.0052C21.3817 14.1302 20.6869 16.137 19.3736 17.8086L19.1044 18.1512L16.6934 16.0832Z" fill="#1D81CE"/>
</svg>
