<svg width="125" height="114" viewBox="0 0 125 114" fill="none" xmlns="http://www.w3.org/2000/svg">
<path d="M65.2554 15.8333C41.5403 15.8333 22.3213 34.9124 22.3213 58.4629C22.3213 82.0071 41.5403 101.093 65.2554 101.093C88.9547 101.093 108.186 82.0071 108.186 58.4629C108.19 34.9124 88.9547 15.8333 65.2554 15.8333ZM95.0772 64.2832L74.8123 84.4042C72.1784 87.0262 68.0488 87.1497 65.5807 84.7019C63.1189 82.2541 63.2465 78.1532 65.8805 75.5407L75.5744 65.9077H39.6907C36.1926 65.9077 33.3705 63.0957 33.3641 59.6346C33.3641 56.1702 36.1926 53.3646 39.6907 53.3646H75.7594L66.0144 43.6936C63.4251 41.1159 63.3135 37.0341 65.7912 34.5894C68.2561 32.1448 72.3537 32.2429 74.9462 34.8206L94.9433 54.6692C95.0294 54.7547 95.0932 54.8656 95.1665 54.9479C95.2398 55.0112 95.3164 55.0524 95.377 55.1189C97.8451 57.5541 97.7144 61.6612 95.0772 64.2832Z" fill="#06113C"/>
</svg>
