<svg width="75" height="75" viewBox="0 0 75 75" fill="none" xmlns="http://www.w3.org/2000/svg">
<circle cx="37.5" cy="37.5" r="37.5" fill="white"/>
<g clip-path="url(#clip0_332_44)">
<path d="M32.4754 39.8371C33.4206 39.8371 34.4611 39.9294 35.411 40.1039V37.2585H42.3314V42.3368C43.1456 42.6357 43.7401 42.9581 44.2982 43.3636C45.3562 44.1321 45.9376 45.141 45.9725 46.2476C47.3193 45.9294 48.5545 45.3899 49.6234 44.655C50.0096 44.3895 50.4731 44.1572 50.7445 43.9579V36.0547L38.8391 22.7516L26.7266 36.1349V40.9177C27.5407 40.7113 28.2827 40.4894 29.1427 40.2549C30.1599 39.9777 31.2887 39.8371 32.4754 39.8371Z" fill="#1D80C9"/>
<path d="M38.8933 19.5062L52.3521 34.5447H55.4216L38.8663 16.0714L32.0188 23.6122V20.5682H26.9981V29.1597L22.1697 34.5447H25.2829L38.8933 19.5062Z" fill="#1D80C9"/>
<path d="M53.9061 45.2363C53.1606 45.2363 52.157 45.5674 50.8816 46.4442C48.5501 48.0469 45.696 48.7526 43.0882 48.7526C40.9683 48.7526 39.0113 48.2865 37.6293 47.4573C36.9445 47.0464 36.9466 46.9092 37.3438 46.9092C38.1414 46.9092 40.5331 47.4627 42.154 47.4627C42.9516 47.4627 43.5624 47.3288 43.7052 46.9289C44.3657 45.0796 41.8054 44.4842 39.1283 43.4008C37.1683 42.6073 34.7761 42.0083 32.4981 42.0082C31.5484 42.0082 30.6101 42.1123 29.7392 42.3497C25.7849 43.4278 22.9274 44.2399 22.1133 44.5036V54.8815C23.7416 54.2827 25.6278 53.7088 26.7011 53.7088C28.6708 53.7088 36.6411 56.2499 41.1539 56.2499C41.786 56.2499 42.352 56.2001 42.8227 56.0865C46.6529 55.1619 53.3026 49.7462 55.1075 47.8972C55.9741 47.0095 55.6313 45.2363 53.9061 45.2363Z" fill="#1D80C9"/>
</g>
<defs>
<clipPath id="clip0_332_44">
<rect width="40.1786" height="40.1786" fill="white" transform="translate(18.75 16.0714)"/>
</clipPath>
</defs>
</svg>
