<svg width="75" height="75" viewBox="0 0 75 75" fill="none" xmlns="http://www.w3.org/2000/svg">
<circle cx="37.5" cy="37.5" r="37.5" fill="white"/>
<g clip-path="url(#clip0_332_20)">
<path d="M37.5 18.75C33.7916 18.75 30.1665 19.8497 27.0831 21.9099C23.9996 23.9702 21.5964 26.8986 20.1773 30.3247C18.7581 33.7508 18.3868 37.5208 19.1103 41.1579C19.8338 44.7951 21.6195 48.136 24.2418 50.7582C26.864 53.3805 30.2049 55.1662 33.8421 55.8897C37.4792 56.6132 41.2492 56.2419 44.6753 54.8227C48.1014 53.4036 51.0298 51.0004 53.0901 47.9169C55.1503 44.8335 56.25 41.2084 56.25 37.5C56.25 32.5272 54.2746 27.7581 50.7583 24.2417C47.242 20.7254 42.4728 18.75 37.5 18.75V18.75ZM36.75 45.3125L28.125 38.7344L30.9844 35.0312L36.1563 39.0625L43.2031 31.125L46.7031 34.25L36.75 45.3125Z" fill="#1D80C9"/>
</g>
<defs>
<clipPath id="clip0_332_20">
<rect width="37.5" height="37.5" fill="white" transform="translate(18.75 18.75)"/>
</clipPath>
</defs>
</svg>
