<svg width="75" height="75" viewBox="0 0 75 75" fill="none" xmlns="http://www.w3.org/2000/svg">
<circle cx="37.5" cy="37.5" r="37.5" fill="white"/>
<path d="M21.6243 24.6349C20.0371 24.6349 18.75 25.9876 18.75 27.6558C18.75 29.3239 20.0371 30.6767 21.6243 30.6767C23.2114 30.6767 24.4986 29.3238 24.4986 27.6558C24.4986 25.9876 23.2114 24.6349 21.6243 24.6349Z" fill="#1D80C9"/>
<path d="M31.0315 31.2045H53.704C55.5688 31.2045 57.0804 29.6157 57.0804 27.6558C57.0804 25.6959 55.5688 24.1072 53.704 24.1072H31.0315C29.1667 24.1072 27.6552 25.6959 27.6552 27.6558C27.6552 29.6157 29.1667 31.2045 31.0315 31.2045Z" fill="#1D80C9"/>
<path d="M21.6243 35.8184C20.0371 35.8184 18.75 37.1711 18.75 38.8392C18.75 40.5074 20.0371 41.8602 21.6243 41.8602C23.2114 41.8602 24.4986 40.5074 24.4986 38.8392C24.4986 37.1711 23.2114 35.8184 21.6243 35.8184Z" fill="#1D80C9"/>
<path d="M53.7038 35.2906H31.0311C29.1664 35.2906 27.6548 36.8794 27.6548 38.8393C27.6548 40.7992 29.1664 42.3879 31.0311 42.3879H53.7037C55.5684 42.3879 57.08 40.7992 57.08 38.8393C57.08 36.8794 55.5684 35.2906 53.7038 35.2906Z" fill="#1D80C9"/>
<path d="M21.6243 47.0018C20.0371 47.0018 18.75 48.3546 18.75 50.0227C18.75 51.6908 20.0371 53.0437 21.6243 53.0437C23.2114 53.0437 24.4986 51.6908 24.4986 50.0227C24.4986 48.3546 23.2114 47.0018 21.6243 47.0018Z" fill="#1D80C9"/>
<path d="M53.7038 46.4741H31.0311C29.1664 46.4741 27.6548 48.0628 27.6548 50.0228C27.6548 51.9827 29.1664 53.5714 31.0311 53.5714H53.7037C55.5684 53.5714 57.08 51.9827 57.08 50.0228C57.08 48.0628 55.5684 46.4741 53.7038 46.4741Z" fill="#1D80C9"/>
</svg>
