<svg width="75" height="75" viewBox="0 0 75 75" fill="none" xmlns="http://www.w3.org/2000/svg">
<circle cx="37.5" cy="37.5" r="37.5" fill="white"/>
<path d="M32.8125 35.9375C34.0486 35.9375 35.257 35.5709 36.2848 34.8842C37.3126 34.1974 38.1137 33.2213 38.5867 32.0793C39.0598 30.9372 39.1836 29.6806 38.9424 28.4682C38.7013 27.2558 38.106 26.1422 37.2319 25.2681C36.3578 24.394 35.2442 23.7988 34.0318 23.5576C32.8194 23.3164 31.5628 23.4402 30.4207 23.9133C29.2787 24.3863 28.3026 25.1874 27.6158 26.2152C26.9291 27.243 26.5625 28.4514 26.5625 29.6875C26.5625 31.3451 27.221 32.9348 28.3931 34.1069C29.5652 35.279 31.1549 35.9375 32.8125 35.9375Z" fill="#1D80C9"/>
<path d="M45.3125 39.0625C46.2396 39.0625 47.1459 38.7876 47.9167 38.2725C48.6876 37.7574 49.2884 37.0254 49.6432 36.1688C49.998 35.3123 50.0908 34.3698 49.9099 33.4605C49.7291 32.5512 49.2826 31.716 48.6271 31.0604C47.9715 30.4049 47.1363 29.9584 46.227 29.7776C45.3177 29.5967 44.3752 29.6895 43.5187 30.0443C42.6621 30.3991 41.9301 30.9999 41.415 31.7708C40.8999 32.5416 40.625 33.4479 40.625 34.375C40.625 35.6182 41.1189 36.8105 41.9979 37.6896C42.877 38.5686 44.0693 39.0625 45.3125 39.0625Z" fill="#1D80C9"/>
<path d="M51.5625 50C51.9769 50 52.3743 49.8354 52.6674 49.5423C52.9604 49.2493 53.125 48.8519 53.125 48.4375C53.1237 46.9772 52.7132 45.5464 51.94 44.3076C51.1668 43.0688 50.0619 42.0715 48.7505 41.4288C47.4392 40.7862 45.974 40.5239 44.5212 40.6719C43.0684 40.8198 41.6862 41.3719 40.5312 42.2656C39.0008 40.7412 37.0532 39.704 34.9341 39.285C32.815 38.866 30.6192 39.0839 28.6238 39.9111C26.6283 40.7384 24.9225 42.138 23.7215 43.9335C22.5204 45.7289 21.8779 47.8398 21.875 50C21.875 50.4144 22.0396 50.8118 22.3326 51.1048C22.6257 51.3979 23.0231 51.5625 23.4375 51.5625H42.1875C42.6019 51.5625 42.9993 51.3979 43.2924 51.1048C43.5854 50.8118 43.75 50.4144 43.75 50" fill="#1D80C9"/>
</svg>
